<svg width="63" height="71" xmlns="http://www.w3.org/2000/svg"><title>turtle-first</title><path d="M3.325 32.322c.831-5.513 3.488-10.439 7.346-14.164-.428-1.533-1.059-3.038-1.904-4.479-1.347-2.299-3.11-4.217-5.139-5.714 5.542-.651 11.172 1.103 15.33 4.849 2.933-1.164 6.137-1.805 9.493-1.805 4.771 0 9.235 1.295 13.049 3.549.761-2.042 1.177-4.249 1.177-6.551 0-2.655-.553-5.184-1.551-7.48 6.887 2.905 11.712 9.641 11.712 17.487 0 2.103-.347 4.126-.987 6.016 6.204.277 11.148 5.318 11.148 11.497 0 6.178-4.944 11.22-11.148 11.497.64 1.891.987 3.914.987 6.016 0 7.846-4.825 14.582-11.712 17.487.998-2.296 1.551-4.824 1.551-7.48 0-1.994-.312-3.916-.89-5.722-3.876 2.359-8.445 3.721-13.336 3.721-3.981 0-7.748-.902-11.102-2.509-3.942 2.846-8.867 4.122-13.725 3.551 2.03-1.497 3.792-3.415 5.14-5.715.565-.964 1.035-1.957 1.412-2.967-4.08-4.161-6.709-9.712-7.082-15.861l-3.094-2.516v-.001zm0 0" fill="#658055"/></svg>